<svg width="3201" height="1685" viewBox="0 0 3201 1685" fill="none" xmlns="http://www.w3.org/2000/svg">
<g clip-path="url(#clip0)">
<path d="M2811.08 752.086L2508.15 895.44L2776.26 694.989C2732.69 626.982 2683.73 562.575 2629.87 502.383L1316.09 828.887L2502.81 376.256C2448.58 328.415 2390.99 284.525 2330.48 244.922L328.582 567.332C116.031 833.09 0.163664 1163.21 0 1503.49H3013.4C3013.28 1239.59 2943.49 980.386 2811.08 752.086V752.086Z" fill="url(#paint0_linear)"/>
<path d="M2166.64 151.848C1961.1 51.6146 1735.38 -0.323749 1506.7 8.9929e-06C1041.28 8.9929e-06 625.174 211.011 348.794 542.554C822.068 438.869 1646.08 259.385 2166.64 151.848Z" fill="url(#paint1_linear)"/>
<path d="M3013.42 1497.44C3013.42 1544.22 2578.6 1685 2042.22 1685C1505.84 1685 1071.02 1544.22 1071.02 1497.44C1071.02 1450.66 1505.84 1515.59 2042.22 1515.59C2578.6 1515.59 3013.42 1450.66 3013.42 1497.44Z" fill="#3F3D56"/>
<path opacity="0.1" d="M3013.42 1497.44C3013.42 1544.22 2578.6 1685 2042.22 1685C1505.84 1685 1071.02 1544.22 1071.02 1497.44C1071.02 1450.66 1505.84 1515.59 2042.22 1515.59C2578.6 1515.59 3013.42 1450.66 3013.42 1497.44Z" fill="black"/>
<path d="M2042.22 1582.15C2578.6 1582.15 3013.42 1544.22 3013.42 1497.44C3013.42 1450.66 2578.6 1412.74 2042.22 1412.74C1505.84 1412.74 1071.02 1450.66 1071.02 1497.44C1071.02 1544.22 1505.84 1582.15 2042.22 1582.15Z" fill="#3F3D56"/>
<path d="M1771.88 808.093C1771.88 808.093 1810.94 870.039 1796.99 886.811C1783.04 903.584 1901.65 904.003 1901.65 904.003C1901.65 904.003 1883.84 813.891 1889.08 793.152L1771.88 808.093Z" fill="#FFB8B8"/>
<path opacity="0.1" d="M1771.88 808.093C1771.88 808.093 1810.94 870.039 1796.99 886.811C1783.04 903.584 1901.65 904.003 1901.65 904.003C1901.65 904.003 1883.84 813.891 1889.08 793.152L1771.88 808.093Z" fill="black"/>
<path d="M1834.31 830.543C1901.95 830.543 1956.79 775.711 1956.79 708.072C1956.79 640.433 1901.95 585.601 1834.31 585.601C1766.66 585.601 1711.82 640.433 1711.82 708.072C1711.82 775.711 1766.66 830.543 1834.31 830.543Z" fill="#FFB8B8"/>
<path d="M2122.4 1371.9V1444.5L2195.01 1429.38L2188.96 1377.95L2122.4 1371.9Z" fill="#FFB8B8"/>
<path d="M2379.57 1384L2582.28 1417.28L2530.84 1492.9C2530.84 1492.9 2388.64 1444.5 2352.34 1444.5C2316.03 1444.5 2379.57 1384 2379.57 1384Z" fill="#FFB8B8"/>
<path d="M1919.68 1238.79C1919.68 1238.79 2070.96 1063.33 2119.37 1072.41C2167.78 1081.49 2188.96 1135.94 2188.96 1135.94L2216.19 1405.18C2216.19 1405.18 2119.37 1414.25 2119.37 1405.18C2119.37 1396.1 2101.22 1202.49 2101.22 1202.49C2101.22 1202.49 1959.02 1517.11 1883.38 1308.37L1919.68 1238.79Z" fill="#2F2E41"/>
<path d="M1674.62 1356.77C1674.62 1356.77 1677.64 1508.03 1768.41 1517.1C1859.17 1526.18 1959.02 1456.6 1959.02 1456.6L2122.4 1378.34C2122.4 1378.34 2316.03 1480.8 2373.52 1453.58C2373.52 1453.58 2434.03 1390.05 2394.69 1371.9C2355.36 1353.75 2391.67 1371.9 2391.67 1371.9L2158.7 1250.89C2158.7 1250.89 2113.32 1238.79 2034.66 1272.07C1955.99 1305.35 1850.1 1320.47 1850.1 1320.47L1674.62 1356.77Z" fill="#2F2E41"/>
<path d="M1955.99 1002.83L1949.94 1129.89C1949.94 1129.89 1952.97 1296.27 1925.74 1308.37C1911.97 1314.48 1884.32 1326.76 1858.75 1340.2C1839.57 1350.24 1821.57 1360.89 1811.52 1370.05C1808.86 1372.32 1806.56 1374.98 1804.71 1377.95C1792.61 1399.12 1713.95 1396.1 1695.79 1380.97C1677.64 1365.85 1689.74 1399.12 1674.62 1405.18C1659.97 1411.04 1639.67 1363.07 1652.11 1291.43C1652.5 1289.04 1652.95 1286.62 1653.44 1284.17C1667.32 1214.74 1645.51 1048.45 1648.87 984.197C1649.06 979.288 1649.58 974.397 1650.41 969.556C1659.49 921.154 1775.31 822.655 1796.97 864.614C1823.65 916.404 1884.95 869.091 1895.48 845.525C1955.99 842.5 1977.17 915.103 1977.17 915.103L1955.99 1002.83Z" fill="#626262"/>
<path d="M2201.06 1417.28C2201.06 1417.28 2152.65 1435.43 2137.52 1432.4C2122.4 1429.38 2107.27 1441.48 2107.27 1459.63C2107.27 1477.78 2089.11 1520.13 2116.34 1523.16C2143.57 1526.18 2255.52 1520.13 2279.72 1529.21C2279.72 1529.21 2388.64 1532.23 2379.57 1486.85C2370.49 1441.48 2325.11 1444.5 2325.11 1444.5C2325.11 1444.5 2201.06 1438.45 2201.06 1417.28Z" fill="#2F2E41"/>
<path d="M2555.05 1426.35C2555.05 1426.35 2561.1 1408.2 2570.18 1408.2C2579.25 1408.2 2651.86 1420.3 2660.94 1417.28C2670.02 1414.25 2775.91 1408.2 2757.76 1459.63C2739.61 1511.05 2679.09 1517.11 2679.09 1517.11C2679.09 1517.11 2570.18 1505 2555.05 1508.03C2539.92 1511.05 2485.46 1508.03 2494.54 1492.9C2503.61 1477.78 2561.1 1450.55 2555.05 1426.35Z" fill="#2F2E41"/>
<path d="M2279.65 991.831L2296.24 1060.29C2296.43 1061.05 2296.4 1061.85 2296.16 1062.6L2220.87 1297.87C2220.57 1298.8 2219.96 1299.6 2219.14 1300.14C2218.32 1300.67 2217.35 1300.91 2216.37 1300.82C2215.4 1300.72 2214.49 1300.3 2213.79 1299.61C2213.09 1298.92 2212.65 1298.02 2212.54 1297.05L2202.13 1205.4C2202.06 1204.79 2202.12 1204.17 2202.31 1203.59L2271.42 991.514C2271.71 990.629 2272.28 989.862 2273.04 989.33C2273.81 988.798 2274.72 988.53 2275.65 988.566C2276.58 988.602 2277.48 988.94 2278.2 989.529C2278.92 990.118 2279.43 990.927 2279.65 991.831V991.831Z" fill="#D0CDE1"/>
<path d="M2273.54 997.614L2288.86 1056.35L2222.45 1270.87L2207.13 1204.47L2273.54 997.614Z" fill="#F2F2F2"/>
<path d="M1938.94 1316.84C1941.5 1324.5 2204.58 1314.29 2207.13 1311.73C2209.36 1308.54 2211.24 1305.11 2212.75 1301.52C2215.15 1296.41 2217.35 1291.3 2217.35 1291.3L2207.13 1208.61L1946.61 1199.37C1946.61 1199.37 1940.09 1269.44 1938.76 1301.52C1938.31 1306.62 1938.37 1311.75 1938.94 1316.84Z" fill="#D0CDE1"/>
<path opacity="0.1" d="M2173.93 1219.79L2179.03 1291.3H2064.1V1219.79H2173.93Z" fill="black"/>
<path opacity="0.1" d="M2025.79 1242.78L2026.47 1242.64L2023.23 1273.43H1959.37V1242.78H2025.79Z" fill="black"/>
<path opacity="0.1" d="M1938.94 1316.84C1941.5 1324.5 2204.58 1314.29 2207.13 1311.73C2209.36 1308.54 2211.24 1305.11 2212.75 1301.52H1938.76C1938.31 1306.62 1938.37 1311.75 1938.94 1316.84Z" fill="black"/>
<path opacity="0.1" d="M1858.75 1340.2C1851.28 1354.32 1842.5 1368.99 1841.02 1374.92C1840.02 1378.95 1828.95 1376.62 1811.52 1370.05C1776.58 1356.83 1716.01 1326.55 1659.49 1296.27C1656.88 1294.89 1654.41 1293.27 1652.11 1291.43C1652.5 1289.04 1652.95 1286.62 1653.44 1284.17C1667.32 1214.74 1645.51 1048.45 1648.87 984.197L1674.62 975.606L1726.05 1024.01V1229.72C1726.05 1229.72 1859.17 1302.32 1868.25 1308.37C1872.88 1311.46 1866.5 1325.52 1858.75 1340.2Z" fill="#626262"/>
<path d="M1971.12 1175.26L2052.81 1217.62C2052.81 1217.62 2101.22 1166.19 2131.47 1205.52C2161.73 1244.84 2043.73 1256.94 2043.73 1256.94C2043.73 1256.94 1940.86 1232.74 1937.84 1199.47C1934.81 1166.19 1971.12 1175.26 1971.12 1175.26Z" fill="#FFB8B8"/>
<path d="M1834.97 1287.19L1883.38 1299.3C1883.38 1299.3 1937.84 1232.74 1995.32 1256.94C2052.81 1281.14 1922.71 1329.55 1922.71 1329.55C1922.71 1329.55 1853.12 1365.85 1825.89 1335.6C1798.66 1305.35 1834.97 1287.19 1834.97 1287.19Z" fill="#FFB8B8"/>
<path d="M1940.86 887.877C1943.89 890.902 1977.17 915.103 1977.17 915.103C1977.17 915.103 1986.25 1030.06 1974.14 1054.26C1962.04 1078.46 1952.97 1078.46 1962.04 1090.56C1971.12 1102.66 1983.22 1093.59 1971.12 1114.76C1959.02 1135.94 1946.91 1132.91 1955.99 1141.99C1965.07 1151.06 1962.04 1154.09 1962.04 1154.09L1998.35 1184.34C1998.35 1184.34 1976.07 1219.81 1947.88 1217.2C1919.68 1214.59 1895.48 1078.46 1895.48 1078.46L1940.86 887.877Z" fill="#626262"/>
<path d="M1674.62 960.48L1647.39 969.556C1647.39 969.556 1574.77 1235.77 1659.49 1281.14C1744.2 1326.52 1837.99 1371.9 1841.02 1359.8C1844.05 1347.7 1877.33 1299.3 1868.25 1293.25C1859.17 1287.19 1726.05 1214.59 1726.05 1214.59V1008.88L1674.62 960.48Z" fill="#626262"/>
<path opacity="0.1" d="M1715.46 1070.9L1709.41 1216.1L1869.76 1291.73L1721.51 1216.1L1715.46 1070.9Z" fill="black"/>
<path d="M3065.15 1396.53C3004.17 1432.48 2980.17 1504.75 2980.17 1504.75C2980.17 1504.75 3055.04 1518.73 3116.02 1482.78C3177 1446.83 3201 1374.56 3201 1374.56C3201 1374.56 3126.13 1360.58 3065.15 1396.53Z" fill="#3F3D56"/>
<path d="M3086.52 1418.82C3052.37 1480.82 2980.83 1506.94 2980.83 1506.94C2980.83 1506.94 2964.65 1432.53 2998.8 1370.52C3032.95 1308.52 3104.49 1282.41 3104.49 1282.41C3104.49 1282.41 3120.67 1356.82 3086.52 1418.82Z" fill="#6C63FF"/>
<path d="M66.5426 701.831C73.2265 701.831 78.6448 696.414 78.6448 689.731C78.6448 683.048 73.2265 677.63 66.5426 677.63C59.8588 677.63 54.4405 683.048 54.4405 689.731C54.4405 696.414 59.8588 701.831 66.5426 701.831Z" fill="#6C63FF"/>
<path d="M99.8235 701.831C106.507 701.831 111.926 696.414 111.926 689.731C111.926 683.048 106.507 677.63 99.8235 677.63C93.1397 677.63 87.7214 683.048 87.7214 689.731C87.7214 696.414 93.1397 701.831 99.8235 701.831Z" fill="#6C63FF"/>
<path d="M133.104 701.831C139.788 701.831 145.207 696.414 145.207 689.731C145.207 683.048 139.788 677.63 133.104 677.63C126.421 677.63 121.002 683.048 121.002 689.731C121.002 696.414 126.421 701.831 133.104 701.831Z" fill="#6C63FF"/>
<path opacity="0.3" d="M414.48 1146.14H238.998V1164.29H414.48V1146.14Z" fill="#6C63FF"/>
<path opacity="0.3" d="M404.994 1185.47H238.998V1203.62H404.994V1185.47Z" fill="#6C63FF"/>
<path opacity="0.3" d="M359.938 1224.79H238.998V1242.94H359.938V1224.79Z" fill="#6C63FF"/>
<g opacity="0.3">
<path opacity="0.3" d="M822.927 1146.14H647.446V1164.29H822.927V1146.14Z" fill="#6C63FF"/>
<path opacity="0.3" d="M813.442 1185.47H647.446V1203.62H813.442V1185.47Z" fill="#6C63FF"/>
<path opacity="0.3" d="M768.386 1224.79H647.446V1242.94H768.386V1224.79Z" fill="#6C63FF"/>
<path opacity="0.3" d="M822.927 1146.14H647.446V1164.29H822.927V1146.14Z" fill="#6C63FF"/>
<path opacity="0.3" d="M813.442 1185.47H647.446V1203.62H813.442V1185.47Z" fill="#6C63FF"/>
<path opacity="0.3" d="M768.386 1224.79H647.446V1242.94H768.386V1224.79Z" fill="#6C63FF"/>
</g>
<path opacity="0.3" d="M1246.5 1146.14H1071.02V1164.29H1246.5V1146.14Z" fill="#6C63FF"/>
<path opacity="0.3" d="M1237.02 1185.47H1071.02V1203.62H1237.02V1185.47Z" fill="#6C63FF"/>
<path opacity="0.3" d="M1191.96 1224.79H1071.02V1242.94H1191.96V1224.79Z" fill="#6C63FF"/>
<path opacity="0.3" d="M438.684 910.18H214.794V1109.84H438.684V910.18Z" fill="#6C63FF"/>
<path d="M847.131 910.18H623.242V1109.84H847.131V910.18Z" fill="#3F3D56"/>
<path d="M1270.71 910.18H1046.82V1109.84H1270.71V910.18Z" fill="#3F3D56"/>
<path d="M706.016 1109L703.062 1108.94C703.126 1105.67 704.972 1028.59 735.321 1007.29L737.017 1009.7C707.893 1030.15 706.031 1108.21 706.016 1109Z" fill="#6C63FF"/>
<path d="M750.938 1006.31C759.095 1006.31 765.707 999.699 765.707 991.544C765.707 983.388 759.095 976.777 750.938 976.777C742.781 976.777 736.169 983.388 736.169 991.544C736.169 999.699 742.781 1006.31 750.938 1006.31Z" fill="#6C63FF"/>
<path d="M747.952 1043.68C740.27 1046.1 732.089 1046.45 724.227 1044.71C729.219 1038.35 735.942 1033.58 743.586 1030.96C751.23 1028.34 759.469 1027.98 767.311 1029.93C762.173 1036.13 755.498 1040.87 747.952 1043.68V1043.68Z" fill="#6C63FF"/>
<path d="M1129.59 1109L1126.64 1108.94C1126.7 1105.67 1128.55 1028.59 1158.9 1007.29L1160.59 1009.7C1131.47 1030.15 1129.61 1108.21 1129.59 1109Z" fill="#6C63FF"/>
<path d="M1174.51 1006.31C1182.67 1006.31 1189.28 999.699 1189.28 991.544C1189.28 983.388 1182.67 976.777 1174.51 976.777C1166.36 976.777 1159.74 983.388 1159.74 991.544C1159.74 999.699 1166.36 1006.31 1174.51 1006.31Z" fill="#6C63FF"/>
<path d="M1171.53 1043.68C1163.85 1046.1 1155.66 1046.45 1147.8 1044.71C1152.79 1038.35 1159.52 1033.58 1167.16 1030.96C1174.81 1028.34 1183.04 1027.98 1190.89 1029.93C1185.75 1036.13 1179.07 1040.87 1171.53 1043.68V1043.68Z" fill="#6C63FF"/>
<path d="M1467.37 1494.42H18.134V656.454H1467.37V1494.42ZM24.1851 1488.37H1461.32V662.504H24.1851V1488.37Z" fill="#2F2E41"/>
<path d="M1464.34 717.153H21.1595V723.204H1464.34V717.153Z" fill="#2F2E41"/>
<path d="M1740.43 674.842C1756.4 687.182 1778.91 686.838 1799.22 684.343C1840.45 679.276 1898.1 661.027 1935.73 643.518C1944.35 670.183 1942.9 701.217 1963.79 720.22C1965.58 691.461 1964.03 662.598 1959.19 634.201C1957.11 622.023 1954.27 609.572 1946.98 599.535C1939.7 589.498 1926.96 582.371 1914.57 584.902C1922.28 576.003 1932.07 569.131 1943.08 564.891L1899.74 553.607L1907.61 541.182L1835.78 551.93L1853.56 534.567C1821.75 536.905 1790.26 542.568 1759.63 551.462C1745.41 555.594 1730.73 560.831 1720.79 571.66C1710.86 582.489 1707.62 600.504 1717.49 611.205C1708.71 614.627 1700.94 620.226 1694.93 627.471C1688.92 634.717 1684.86 643.369 1683.15 652.607C1680.73 666.899 1684.32 681.44 1688.91 695.145C1696.36 717.044 1706.3 738.019 1718.53 757.661" fill="#2F2E41"/>
</g>
<defs>
<linearGradient id="paint0_linear" x1="2370.51" y1="245.036" x2="0.134627" y2="1478.04" gradientUnits="userSpaceOnUse">
<stop stop-color="#00ABAB"/>
<stop offset="0.810417" stop-color="#05A3B9" stop-opacity="0"/>
</linearGradient>
<linearGradient id="paint1_linear" x1="2166.29" y1="154.282" x2="13.7745" y2="1488.62" gradientUnits="userSpaceOnUse">
<stop stop-color="#00ABAB"/>
<stop offset="1" stop-color="white" stop-opacity="0"/>
</linearGradient>
<clipPath id="clip0">
<rect width="3201" height="1685" fill="white"/>
</clipPath>
</defs>
</svg>
